<svg xmlns="http://www.w3.org/2000/svg" version="1.1" xmlns:xlink="http://www.w3.org/1999/xlink" xmlns:svgjs="http://svgjs.dev/svgjs" width="2000" height="414" viewBox="0 0 2000 414"><g transform="matrix(1,0,0,1,-1.2121212121212466,-0.9769737576875741)"><svg viewBox="0 0 396 82" data-background-color="#ffffff" preserveAspectRatio="xMidYMid meet" height="414" width="2000" xmlns="http://www.w3.org/2000/svg" xmlns:xlink="http://www.w3.org/1999/xlink"><g id="tight-bounds" transform="matrix(1,0,0,1,0.2400000000000091,0.1935068795419852)"><svg viewBox="0 0 395.52 81.61298624091604" height="81.61298624091604" width="395.52"><g><svg viewBox="0 0 395.52 81.61298624091604" height="81.61298624091604" width="395.52"><g><svg viewBox="0 0 518.2527149449086 106.93808579620806" height="81.61298624091604" width="395.52"><g transform="matrix(1,0,0,1,122.73271494490862,1.1857843048940069)"><svg viewBox="0 0 395.52 104.56651718642004" height="104.56651718642004" width="395.52"><g id="textblocktransform"><svg viewBox="0 0 395.52 104.56651718642004" height="104.56651718642004" width="395.52" id="textblock"><g><svg viewBox="0 0 395.52 69.18457417758688" height="69.18457417758688" width="395.52"><g transform="matrix(1,0,0,1,0,0)"><svg width="395.52" viewBox="3.85 -33.33 193.7218115234375 33.89" height="69.18457417758688" data-palette-color="#556970"><g transform="matrix(1,0,0,1,0,0)"><g><svg width="15.154541015624998" viewBox="1.78 -36.36 74.21 36.36" height="7.425" data-palette-color="#556970" id="scriptelement" x="182.4172705078125" y="-33.33"><path d="M12.91-30.02L1.78-30.02 1.78-36.36 31.64-36.36 31.64-30.02 20.51-30.02 20.51 0 12.91 0 12.91-30.02ZM36.57 0L36.57-36.36 46.06-36.36 56.07-11.93 56.5-11.93 66.51-36.36 75.99-36.36 75.99 0 68.53 0 68.53-23.67 68.23-23.67 58.82-0.18 53.74-0.18 44.33-23.76 44.03-23.76 44.03 0 36.57 0Z" opacity="1" transform="matrix(1,0,0,1,0,0)" fill="#556970" class="undefined-123" data-fill-palette-color="primary" id="tk-123"></path></svg></g></g><g class="wordmark-text-0" data-fill-palette-color="primary" id="text-0"><path d="M8.65 0L3.85 0 3.85-32.29 18.54-13.06 32.95-32.29 32.95 0 27.95 0 27.95-11.7Q27.95-13.19 28-14.98 28.06-16.77 28.3-19.1L28.3-19.1Q27.22-17.22 26.22-15.85 25.21-14.48 24.38-13.3L24.38-13.3 18.44-5.1 12.29-13.3Q11.46-14.44 10.42-15.9 9.38-17.36 8.33-19.13L8.33-19.13Q8.58-16.81 8.61-15 8.65-13.19 8.65-11.7L8.65-11.7 8.65 0ZM47.64 0.56L47.64 0.56Q45.45 0.56 43.52-0.52 41.59-1.6 40.4-3.66 39.2-5.73 39.2-8.61L39.2-8.61 39.2-20.83 44.09-20.83 44.09-9.27Q44.09-7.15 45.36-5.54 46.63-3.92 48.92-3.92L48.92-3.92Q50.8-3.92 52.27-5.28 53.75-6.63 53.75-9.2L53.75-9.2 53.75-20.83 58.64-20.83 58.64 0 54.16 0 54.16-2.78Q53.05-1.18 51.33-0.31 49.62 0.56 47.64 0.56ZM69.16 0L64.27 0 64.27-20.83 68.71-20.83 68.71-18.02Q69.86-19.65 71.57-20.52 73.29-21.39 75.31-21.39L75.31-21.39Q77.53-21.39 79.44-20.31 81.35-19.24 82.53-17.19 83.71-15.14 83.71-12.22L83.71-12.22 83.71 0 78.81 0 78.81-11.56Q78.81-13.68 77.56-15.3 76.31-16.91 73.99-16.91L73.99-16.91Q72.11-16.91 70.64-15.59 69.16-14.27 69.16-11.67L69.16-11.67 69.16 0ZM98.81 0.56L98.81 0.56Q95.76 0.56 93.22-0.92 90.69-2.4 89.18-4.9 87.67-7.4 87.67-10.42L87.67-10.42Q87.67-13.47 89.18-15.95 90.69-18.44 93.22-19.91 95.76-21.39 98.81-21.39L98.81-21.39Q101.03-21.39 102.98-20.64 104.92-19.9 106.42-18.54L106.42-18.54 105.06-13.09Q104.19-14.69 102.6-15.8 101-16.91 98.92-16.91L98.92-16.91Q97.11-16.91 95.63-16.04 94.16-15.17 93.31-13.7 92.46-12.22 92.46-10.42L92.46-10.42Q92.46-8.65 93.31-7.17 94.16-5.69 95.63-4.81 97.11-3.92 98.92-3.92L98.92-3.92Q101-3.92 102.6-5.03 104.19-6.15 105.06-7.74L105.06-7.74 106.42-2.33Q104.92-0.97 102.98-0.21 101.03 0.56 98.81 0.56ZM115.16 0L110.27 0 110.27-33.33 115.16-33.33 115.16-18.58Q116.31-19.97 117.91-20.68 119.5-21.39 121.31-21.39L121.31-21.39Q123.53-21.39 125.44-20.31 127.35-19.24 128.53-17.19 129.71-15.14 129.71-12.22L129.71-12.22 129.71 0 124.82 0 124.82-11.56Q124.82-13.68 123.57-15.3 122.32-16.91 119.99-16.91L119.99-16.91Q118.12-16.91 116.64-15.59 115.16-14.27 115.16-11.67L115.16-11.67 115.16 0ZM137.04 0.56L137.04 0.56Q135.68 0.56 134.76-0.38 133.84-1.32 133.84-2.67L133.84-2.67Q133.84-4.06 134.76-4.98 135.68-5.9 137.04-5.9L137.04-5.9Q138.46-5.9 139.38-4.97 140.3-4.03 140.3-2.67L140.3-2.67Q140.3-1.32 139.38-0.38 138.46 0.56 137.04 0.56ZM149.74 0L144.85 0 144.85-20.83 149.74-20.83 149.74 0ZM147.31-24.24L147.31-24.24Q146.13-24.24 145.3-25.07 144.46-25.9 144.46-27.08L144.46-27.08Q144.46-28.33 145.3-29.15 146.13-29.97 147.31-29.97L147.31-29.97Q148.56-29.97 149.38-29.13 150.19-28.3 150.19-27.08L150.19-27.08Q150.19-25.9 149.36-25.07 148.53-24.24 147.31-24.24ZM160.3 0L155.4 0 155.4-20.83 159.84-20.83 159.84-18.02Q160.99-19.65 162.71-20.52 164.43-21.39 166.44-21.39L166.44-21.39Q168.66-21.39 170.57-20.31 172.48-19.24 173.66-17.19 174.84-15.14 174.84-12.22L174.84-12.22 174.84 0 169.95 0 169.95-11.56Q169.95-13.68 168.7-15.3 167.45-16.91 165.12-16.91L165.12-16.91Q163.25-16.91 161.77-15.59 160.3-14.27 160.3-11.67L160.3-11.67 160.3 0Z" fill="#556970" data-fill-palette-color="primary"></path></g></svg></g></svg></g><g transform="matrix(1,0,0,1,48.5175334268601,85.51739171113488)"><svg viewBox="0 0 300.5952 19.049125475285166" height="19.049125475285166" width="300.5952"><g transform="matrix(1,0,0,1,0,0)"><svg width="300.5952" viewBox="4.4 -37.9 788.91 50" height="19.049125475285166" data-palette-color="#556970"><path d="M8.6-30.25L8.6-3.85 15.35-3.85Q18.1-3.85 20.53-4.55 22.95-5.25 24.78-6.83 26.6-8.4 27.65-10.95 28.7-13.5 28.7-17.15L28.7-17.15Q28.7-20.55 27.75-23.03 26.8-25.5 25.08-27.1 23.35-28.7 20.88-29.48 18.4-30.25 15.35-30.25L15.35-30.25 8.6-30.25ZM4.4 0L4.4-34.1 15.35-34.1Q19.4-34.1 22.68-33.1 25.95-32.1 28.3-30 30.65-27.9 31.93-24.7 33.2-21.5 33.2-17.15L33.2-17.15Q33.2-12.75 31.8-9.53 30.4-6.3 28-4.17 25.6-2.05 22.35-1.03 19.1 0 15.35 0L15.35 0 4.4 0ZM57.2-3.95L57.95-0.6Q56.8-0.25 55.57 0 54.35 0.25 52.87 0.45 51.4 0.65 49.8 0.65L49.8 0.65Q47.3 0.65 45.15-0.05 43-0.75 41.4-2.3 39.8-3.85 38.87-6.33 37.95-8.8 37.95-12.4L37.95-12.4Q37.95-15.65 38.85-18.13 39.75-20.6 41.32-22.28 42.9-23.95 45.02-24.8 47.15-25.65 49.65-25.65L49.65-25.65Q52.1-25.65 53.9-24.7 55.7-23.75 56.87-22.13 58.05-20.5 58.62-18.32 59.2-16.15 59.2-13.75L59.2-13.75 58.45-11.55 42.3-11.55Q42.3-10 42.7-8.45 43.1-6.9 44.07-5.65 45.05-4.4 46.62-3.63 48.2-2.85 50.55-2.85L50.55-2.85Q52.05-2.85 53.3-3.03 54.55-3.2 55.47-3.43 56.4-3.65 57.2-3.95L57.2-3.95ZM42.45-14.75L55.05-14.75Q55.05-15.1 54.9-16.3 54.75-17.5 54.2-18.8 53.65-20.1 52.5-21.13 51.35-22.15 49.45-22.15L49.45-22.15Q47.35-22.15 46-21.28 44.65-20.4 43.85-19.2 43.05-18 42.75-16.75 42.45-15.5 42.45-14.75L42.45-14.75ZM64.64 0L64.64-37.45 68.64-37.9 68.64 0 64.64 0ZM75.84 0L75.84-25.2 79.84-25.65 79.84 0 75.84 0ZM75.19-32.35L75.19-32.35Q75.19-33.5 75.97-34.27 76.74-35.05 77.89-35.05L77.89-35.05Q79.09-35.05 79.92-34.27 80.74-33.5 80.74-32.35L80.74-32.35Q80.74-31.2 79.92-30.43 79.09-29.65 77.89-29.65L77.89-29.65Q76.74-29.65 75.97-30.43 75.19-31.2 75.19-32.35ZM103.44-24.85L102.64-21.5Q101.79-21.7 100.29-21.93 98.79-22.15 97.24-22.15L97.24-22.15Q94.99-22.15 93.57-21.25 92.14-20.35 91.34-18.93 90.54-17.5 90.24-15.78 89.94-14.05 89.94-12.4L89.94-12.4Q89.94-9.85 90.59-8.03 91.24-6.2 92.32-5.05 93.39-3.9 94.79-3.38 96.19-2.85 97.74-2.85L97.74-2.85Q98.79-2.85 99.77-2.98 100.74-3.1 101.57-3.28 102.39-3.45 103.14-3.7L103.14-3.7 103.94-0.35Q102.89-0.05 101.99 0.15 101.09 0.35 99.87 0.5 98.64 0.65 97.24 0.65L97.24 0.65Q94.49 0.65 92.34-0.05 90.19-0.75 88.72-2.3 87.24-3.85 86.47-6.35 85.69-8.85 85.69-12.45L85.69-12.45Q85.69-15.95 86.67-18.48 87.64-21 89.24-22.58 90.84-24.15 92.92-24.9 94.99-25.65 97.24-25.65L97.24-25.65Q98.44-25.65 99.57-25.53 100.69-25.4 101.54-25.25L101.54-25.25Q102.54-25.05 103.44-24.85L103.44-24.85ZM108.89 0L108.89-25.2 112.89-25.65 112.89 0 108.89 0ZM108.24-32.35L108.24-32.35Q108.24-33.5 109.01-34.27 109.79-35.05 110.94-35.05L110.94-35.05Q112.14-35.05 112.96-34.27 113.79-33.5 113.79-32.35L113.79-32.35Q113.79-31.2 112.96-30.43 112.14-29.65 110.94-29.65L110.94-29.65Q109.79-29.65 109.01-30.43 108.24-31.2 108.24-32.35ZM122.94-12.45L122.94-12.45Q122.94-7.6 125.11-5.23 127.29-2.85 130.99-2.85L130.99-2.85Q134.64-2.85 136.69-5.2 138.74-7.55 138.74-12.25L138.74-12.25Q138.74-17.25 136.56-19.7 134.39-22.15 130.64-22.15L130.64-22.15Q126.89-22.15 124.91-19.73 122.94-17.3 122.94-12.45ZM118.69-12.5L118.69-12.5Q118.69-16.3 119.89-18.82 121.09-21.35 122.94-22.88 124.79-24.4 126.91-25.03 129.04-25.65 130.94-25.65L130.94-25.65Q132.74-25.65 134.86-25.08 136.99-24.5 138.79-23.03 140.59-21.55 141.79-19.07 142.99-16.6 142.99-12.8L142.99-12.8Q142.99-8.85 141.76-6.25 140.54-3.65 138.69-2.13 136.84-0.6 134.69 0.03 132.54 0.65 130.69 0.65L130.69 0.65Q128.79 0.65 126.69 0.05 124.59-0.55 122.81-2.02 121.04-3.5 119.86-6.05 118.69-8.6 118.69-12.5ZM164.13 0.4L163.83-2.75 163.73-2.75Q163.28-2.4 162.43-1.83 161.58-1.25 160.48-0.7 159.38-0.15 158.06 0.25 156.73 0.65 155.38 0.65L155.38 0.65Q153.53 0.65 152.23 0.18 150.93-0.3 150.13-1.4 149.33-2.5 148.98-4.3 148.63-6.1 148.63-8.8L148.63-8.8 148.63-25.15 152.63-25.15 152.63-9.4Q152.63-7.9 152.68-6.7 152.73-5.5 153.03-4.65 153.33-3.8 154.01-3.33 154.68-2.85 155.93-2.85L155.93-2.85Q157.23-2.85 158.63-3.4 160.03-3.95 161.18-4.65L161.18-4.65Q162.53-5.45 163.83-6.45L163.83-6.45 163.83-25.15 167.83-25.15 167.83-3.25Q167.88-1.45 168.08 0L168.08 0 164.13 0.4ZM189.38-24.6L188.68-21.05Q186.58-21.7 184.96-21.93 183.33-22.15 181.98-22.15L181.98-22.15Q180.23-22.15 179.06-21.3 177.88-20.45 177.88-19.1L177.88-19.1Q177.93-17.9 178.93-17.05 179.93-16.2 181.26-15.53 182.58-14.85 184.21-14.05 185.83-13.25 187.26-12.25 188.68-11.25 189.58-9.85 190.48-8.45 190.53-6.5L190.53-6.5Q190.48-4.4 189.61-3.03 188.73-1.65 187.36-0.83 185.98 0 184.38 0.33 182.78 0.65 181.38 0.65L181.38 0.65Q179.58 0.65 177.66 0.45 175.73 0.25 173.53-0.4L173.53-0.4 174.28-4Q176.53-3.4 178.38-3.13 180.23-2.85 181.43-2.85L181.43-2.85Q182.33-2.85 183.21-3.05 184.08-3.25 184.78-3.63 185.48-4 185.91-4.6 186.33-5.2 186.33-5.95L186.33-5.95Q186.28-7.35 185.38-8.33 184.48-9.3 183.06-10.08 181.63-10.85 180.01-11.63 178.38-12.4 176.96-13.43 175.53-14.45 174.58-15.88 173.63-17.3 173.63-19.4L173.63-19.4Q173.63-20.9 174.41-22.08 175.18-23.25 176.41-24.03 177.63-24.8 179.11-25.23 180.58-25.65 181.98-25.65L181.98-25.65Q183.43-25.65 185.23-25.43 187.03-25.2 189.38-24.6L189.38-24.6ZM234.48-16.8L234.48-16.8Q234.48-23.55 231.35-27.05 228.23-30.55 222.98-30.55L222.98-30.55Q220.33-30.55 218.15-29.73 215.98-28.9 214.4-27.25 212.83-25.6 211.95-23.13 211.08-20.65 211.08-17.3L211.08-17.3Q211.08-10.55 214.2-6.95 217.33-3.35 222.58-3.35L222.58-3.35Q225.18-3.35 227.38-4.17 229.58-5 231.15-6.7 232.73-8.4 233.6-10.9 234.48-13.4 234.48-16.8ZM224.98 0.55L224.98 0.55Q224.33 0.65 223.93 0.65 223.53 0.65 222.93 0.65L222.93 0.65Q220.28 0.65 217.35-0.15 214.43-0.95 211.98-2.95 209.53-4.95 207.93-8.38 206.33-11.8 206.33-17.05L206.33-17.05Q206.33-21.9 207.83-25.25 209.33-28.6 211.73-30.65 214.13-32.7 217.08-33.63 220.03-34.55 222.93-34.55L222.93-34.55Q225.78-34.55 228.68-33.77 231.58-33 233.93-31 236.28-29 237.75-25.63 239.23-22.25 239.23-17L239.23-17Q239.23-13.6 238.43-10.98 237.63-8.35 236.33-6.38 235.03-4.4 233.33-3.08 231.63-1.75 229.83-0.95L229.83-0.95Q230.63-0.5 231.78 0.25 232.93 1 234.18 1.73 235.43 2.45 236.63 2.95 237.83 3.45 238.78 3.45L238.78 3.45Q239.68 3.45 240.65 3.15 241.63 2.85 242.48 2.3L242.48 2.3 244.33 5.55Q243.18 6.25 241.7 6.85 240.23 7.45 238.58 7.45L238.58 7.45Q237.43 7.45 235.93 6.88 234.43 6.3 232.68 5.35 230.93 4.4 228.98 3.15 227.03 1.9 224.98 0.55ZM260.67 0.4L260.37-2.75 260.27-2.75Q259.82-2.4 258.97-1.83 258.12-1.25 257.02-0.7 255.92-0.15 254.6 0.25 253.27 0.65 251.92 0.65L251.92 0.65Q250.07 0.65 248.77 0.18 247.47-0.3 246.67-1.4 245.87-2.5 245.52-4.3 245.17-6.1 245.17-8.8L245.17-8.8 245.17-25.15 249.17-25.15 249.17-9.4Q249.17-7.9 249.22-6.7 249.27-5.5 249.57-4.65 249.87-3.8 250.55-3.33 251.22-2.85 252.47-2.85L252.47-2.85Q253.77-2.85 255.17-3.4 256.57-3.95 257.72-4.65L257.72-4.65Q259.07-5.45 260.37-6.45L260.37-6.45 260.37-25.15 264.37-25.15 264.37-3.25Q264.42-1.45 264.62 0L264.62 0 260.67 0.4ZM285.62-5.85L285.62-11.55Q284.62-11.5 283.72-11.45 282.82-11.4 281.95-11.33 281.07-11.25 280.37-11.15L280.37-11.15Q276.77-10.7 275.27-9.58 273.77-8.45 273.77-6.35L273.77-6.35Q273.77-4.6 274.85-3.73 275.92-2.85 277.67-2.85L277.67-2.85Q280.07-2.85 281.95-3.68 283.82-4.5 285.62-5.85L285.62-5.85ZM286.07 0.4L285.57-2.35Q283.22-1 281.2-0.18 279.17 0.65 276.82 0.65L276.82 0.65Q273.47 0.65 271.5-0.98 269.52-2.6 269.52-6.35L269.52-6.35Q269.52-8.3 270.52-9.75 271.52-11.2 273.15-12.18 274.77-13.15 276.82-13.7 278.87-14.25 281.02-14.4L281.02-14.4Q281.92-14.5 283.37-14.58 284.82-14.65 285.62-14.7L285.62-14.7Q285.62-16.45 285.52-17.82 285.42-19.2 284.92-20.18 284.42-21.15 283.45-21.65 282.47-22.15 280.67-22.15L280.67-22.15Q279.22-22.15 277.87-21.98 276.52-21.8 275.47-21.6L275.47-21.6Q274.22-21.35 273.17-21.05L273.17-21.05 272.37-24.5Q273.62-24.8 275.07-25.05L275.07-25.05Q276.32-25.3 277.97-25.48 279.62-25.65 281.52-25.65L281.52-25.65Q284.07-25.65 285.65-24.9 287.22-24.15 288.1-22.88 288.97-21.6 289.3-19.98 289.62-18.35 289.62-16.55L289.62-16.55 289.62-4.55Q289.62-3.85 289.65-3.08 289.67-2.3 289.75-1.55 289.82-0.8 289.92 0L289.92 0 286.07 0.4ZM296.67 0L296.67-37.45 300.67-37.9 300.67 0 296.67 0ZM307.87 0L307.87-25.2 311.87-25.65 311.87 0 307.87 0ZM307.22-32.35L307.22-32.35Q307.22-33.5 307.99-34.27 308.77-35.05 309.92-35.05L309.92-35.05Q311.12-35.05 311.94-34.27 312.77-33.5 312.77-32.35L312.77-32.35Q312.77-31.2 311.94-30.43 311.12-29.65 309.92-29.65L309.92-29.65Q308.77-29.65 307.99-30.43 307.22-31.2 307.22-32.35ZM320.91-32.15L324.91-32.65 324.91-25.15 332.16-25.15 332.16-21.9 324.91-21.9 324.91-8.55Q324.91-6.9 324.99-5.8 325.06-4.7 325.31-4.05 325.56-3.4 326.01-3.13 326.46-2.85 327.16-2.85L327.16-2.85Q329.06-2.9 331.56-4.25L331.56-4.25 332.76-1.2Q331.11-0.1 329.69 0.28 328.26 0.65 326.86 0.65L326.86 0.65Q323.56 0.65 322.24-1.23 320.91-3.1 320.91-7.45L320.91-7.45 320.91-21.9 316.31-21.9 316.31-25.15 320.91-25.15 320.91-32.15ZM344.06-0.65L334.01-25.15 338.26-25.15 342.96-13.8Q343.66-12.15 344.24-10.5 344.81-8.85 345.26-7.55L345.26-7.55Q345.81-6 346.21-4.55L346.21-4.55 346.26-4.55Q346.71-6 347.26-7.55L347.26-7.55Q347.71-8.85 348.31-10.5 348.91-12.15 349.56-13.8L349.56-13.8 353.91-25.15 358.11-25.15 346.21 4.85Q345.51 6.7 344.39 8.05 343.26 9.4 342.21 10.3L342.21 10.3Q340.96 11.35 339.61 12.1L339.61 12.1 337.66 8.65Q338.71 8.15 339.61 7.4L339.61 7.4Q340.41 6.75 341.21 5.78 342.01 4.8 342.51 3.45L342.51 3.45 344.06-0.65ZM359.01 5.8L360.71-6.5 364.96-6.5 362.16 6.4 359.01 5.8ZM387.75-30.25L387.75-3.85 394.5-3.85Q397.25-3.85 399.68-4.55 402.1-5.25 403.93-6.83 405.75-8.4 406.8-10.95 407.85-13.5 407.85-17.15L407.85-17.15Q407.85-20.55 406.9-23.03 405.95-25.5 404.23-27.1 402.5-28.7 400.03-29.48 397.55-30.25 394.5-30.25L394.5-30.25 387.75-30.25ZM383.55 0L383.55-34.1 394.5-34.1Q398.55-34.1 401.83-33.1 405.1-32.1 407.45-30 409.8-27.9 411.08-24.7 412.35-21.5 412.35-17.15L412.35-17.15Q412.35-12.75 410.95-9.53 409.55-6.3 407.15-4.17 404.75-2.05 401.5-1.03 398.25 0 394.5 0L394.5 0 383.55 0ZM436.35-3.95L437.1-0.6Q435.95-0.25 434.73 0 433.5 0.25 432.03 0.45 430.55 0.65 428.95 0.65L428.95 0.65Q426.45 0.65 424.3-0.05 422.15-0.75 420.55-2.3 418.95-3.85 418.03-6.33 417.1-8.8 417.1-12.4L417.1-12.4Q417.1-15.65 418-18.13 418.9-20.6 420.48-22.28 422.05-23.95 424.18-24.8 426.3-25.65 428.8-25.65L428.8-25.65Q431.25-25.65 433.05-24.7 434.85-23.75 436.03-22.13 437.2-20.5 437.78-18.32 438.35-16.15 438.35-13.75L438.35-13.75 437.6-11.55 421.45-11.55Q421.45-10 421.85-8.45 422.25-6.9 423.23-5.65 424.2-4.4 425.78-3.63 427.35-2.85 429.7-2.85L429.7-2.85Q431.2-2.85 432.45-3.03 433.7-3.2 434.63-3.43 435.55-3.65 436.35-3.95L436.35-3.95ZM421.6-14.75L434.2-14.75Q434.2-15.1 434.05-16.3 433.9-17.5 433.35-18.8 432.8-20.1 431.65-21.13 430.5-22.15 428.6-22.15L428.6-22.15Q426.5-22.15 425.15-21.28 423.8-20.4 423-19.2 422.2-18 421.9-16.75 421.6-15.5 421.6-14.75L421.6-14.75ZM443.8 0L443.8-37.45 447.8-37.9 447.8 0 443.8 0ZM455 0L455-25.2 459-25.65 459 0 455 0ZM454.35-32.35L454.35-32.35Q454.35-33.5 455.12-34.27 455.9-35.05 457.05-35.05L457.05-35.05Q458.25-35.05 459.07-34.27 459.9-33.5 459.9-32.35L459.9-32.35Q459.9-31.2 459.07-30.43 458.25-29.65 457.05-29.65L457.05-29.65Q455.9-29.65 455.12-30.43 454.35-31.2 454.35-32.35ZM472.34 0L463.09-25.15 467.49-25.15 473.59-7.4 474.69-3.45 474.74-3.45 475.89-7.4 482.39-25.15 486.59-25.15 476.84 0 472.34 0ZM508.24-3.95L508.99-0.6Q507.84-0.25 506.62 0 505.39 0.25 503.92 0.45 502.44 0.65 500.84 0.65L500.84 0.65Q498.34 0.65 496.19-0.05 494.04-0.75 492.44-2.3 490.84-3.85 489.92-6.33 488.99-8.8 488.99-12.4L488.99-12.4Q488.99-15.65 489.89-18.13 490.79-20.6 492.37-22.28 493.94-23.95 496.06-24.8 498.19-25.65 500.69-25.65L500.69-25.65Q503.14-25.65 504.94-24.7 506.74-23.75 507.92-22.13 509.09-20.5 509.67-18.32 510.24-16.15 510.24-13.75L510.24-13.75 509.49-11.55 493.34-11.55Q493.34-10 493.74-8.45 494.14-6.9 495.12-5.65 496.09-4.4 497.67-3.63 499.24-2.85 501.59-2.85L501.59-2.85Q503.09-2.85 504.34-3.03 505.59-3.2 506.52-3.43 507.44-3.65 508.24-3.95L508.24-3.95ZM493.49-14.75L506.09-14.75Q506.09-15.1 505.94-16.3 505.79-17.5 505.24-18.8 504.69-20.1 503.54-21.13 502.39-22.15 500.49-22.15L500.49-22.15Q498.39-22.15 497.04-21.28 495.69-20.4 494.89-19.2 494.09-18 493.79-16.75 493.49-15.5 493.49-14.75L493.49-14.75ZM515.74 0L515.74-21.1Q515.74-22.25 515.49-24.7L515.49-24.7 519.19-25.2 519.59-21.55 519.64-21.55Q520.54-22.7 521.39-23.55 522.24-24.4 523.16-25.03 524.09-25.65 524.94-25.65L524.94-25.65Q526.09-25.7 528.14-25.4L528.14-25.4 527.24-21.55Q525.59-21.85 524.94-21.8L524.94-21.8Q524.09-21.8 523.14-21 522.19-20.2 521.49-19.3L521.49-19.3Q520.59-18.2 519.74-16.8L519.74-16.8 519.74 0 515.74 0ZM549.63-3.95L550.38-0.6Q549.23-0.25 548.01 0 546.78 0.25 545.31 0.45 543.83 0.65 542.23 0.65L542.23 0.65Q539.73 0.65 537.58-0.05 535.43-0.75 533.83-2.3 532.23-3.85 531.31-6.33 530.38-8.8 530.38-12.4L530.38-12.4Q530.38-15.65 531.28-18.13 532.18-20.6 533.76-22.28 535.33-23.95 537.46-24.8 539.58-25.65 542.08-25.65L542.08-25.65Q544.53-25.65 546.33-24.7 548.13-23.75 549.31-22.13 550.48-20.5 551.06-18.32 551.63-16.15 551.63-13.75L551.63-13.75 550.88-11.55 534.73-11.55Q534.73-10 535.13-8.45 535.53-6.9 536.51-5.65 537.48-4.4 539.06-3.63 540.63-2.85 542.98-2.85L542.98-2.85Q544.48-2.85 545.73-3.03 546.98-3.2 547.91-3.43 548.83-3.65 549.63-3.95L549.63-3.95ZM534.88-14.75L547.48-14.75Q547.48-15.1 547.33-16.3 547.18-17.5 546.63-18.8 546.08-20.1 544.93-21.13 543.78-22.15 541.88-22.15L541.88-22.15Q539.78-22.15 538.43-21.28 537.08-20.4 536.28-19.2 535.48-18 535.18-16.75 534.88-15.5 534.88-14.75L534.88-14.75ZM572.78-5.5L572.78-21.4Q570.98-21.9 569.98-22.03 568.98-22.15 567.93-22.15L567.93-22.15Q565.83-22.15 564.33-21.4 562.83-20.65 561.86-19.33 560.88-18 560.43-16.28 559.98-14.55 559.98-12.6L559.98-12.6Q559.98-10.85 560.36-9.1 560.73-7.35 561.53-5.95 562.33-4.55 563.48-3.7 564.63-2.85 566.23-2.85L566.23-2.85Q567.33-2.85 568.51-3.25 569.68-3.65 570.68-4.17 571.68-4.7 572.78-5.5L572.78-5.5ZM573.23 0.4L572.83-2Q571.68-1.2 570.61-0.68 569.53-0.15 568.26 0.25 566.98 0.65 565.78 0.65L565.78 0.65Q561.08 0.65 558.41-2.68 555.73-6 555.73-12.4L555.73-12.4Q555.73-16.2 556.96-18.75 558.18-21.3 560.03-22.83 561.88-24.35 564.01-25 566.13-25.65 567.93-25.65L567.93-25.65Q568.83-25.65 569.83-25.53 570.83-25.4 572.78-24.9L572.78-24.9 572.78-37.45 576.78-37.9 576.78-4.55Q576.78-3.85 576.81-3.08 576.83-2.3 576.91-1.55 576.98-0.8 577.08 0L577.08 0 573.23 0.4ZM596.28 0L596.28-34.1 604.13-34.1Q610.63-34.1 613.75-31.8 616.88-29.5 616.88-24.05L616.88-24.05Q616.88-21.05 615.73-19.05 614.58-17.05 612.85-15.83 611.13-14.6 609.13-14.08 607.13-13.55 605.43-13.55L605.43-13.55 600.48-13.55 600.48 0 596.28 0ZM600.48-30.35L600.48-17.3 605.08-17.3Q606.78-17.3 608.15-17.63 609.53-17.95 610.53-18.73 611.53-19.5 612.08-20.83 612.63-22.15 612.63-24.15L612.63-24.15Q612.63-26.15 612.05-27.38 611.48-28.6 610.35-29.25 609.23-29.9 607.53-30.13 605.83-30.35 603.58-30.35L603.58-30.35 600.48-30.35ZM622.52 0L622.52-21.1Q622.52-22.25 622.27-24.7L622.27-24.7 625.97-25.2 626.37-21.55 626.42-21.55Q627.32-22.7 628.17-23.55 629.02-24.4 629.95-25.03 630.87-25.65 631.72-25.65L631.72-25.65Q632.87-25.7 634.92-25.4L634.92-25.4 634.02-21.55Q632.37-21.85 631.72-21.8L631.72-21.8Q630.87-21.8 629.92-21 628.97-20.2 628.27-19.3L628.27-19.3Q627.37-18.2 626.52-16.8L626.52-16.8 626.52 0 622.52 0ZM641.42-12.45L641.42-12.45Q641.42-7.6 643.6-5.23 645.77-2.85 649.47-2.85L649.47-2.85Q653.12-2.85 655.17-5.2 657.22-7.55 657.22-12.25L657.22-12.25Q657.22-17.25 655.05-19.7 652.87-22.15 649.12-22.15L649.12-22.15Q645.37-22.15 643.4-19.73 641.42-17.3 641.42-12.45ZM637.17-12.5L637.17-12.5Q637.17-16.3 638.37-18.82 639.57-21.35 641.42-22.88 643.27-24.4 645.4-25.03 647.52-25.65 649.42-25.65L649.42-25.65Q651.22-25.65 653.35-25.08 655.47-24.5 657.27-23.03 659.07-21.55 660.27-19.07 661.47-16.6 661.47-12.8L661.47-12.8Q661.47-8.85 660.25-6.25 659.02-3.65 657.17-2.13 655.32-0.6 653.17 0.03 651.02 0.65 649.17 0.65L649.17 0.65Q647.27 0.65 645.17 0.05 643.07-0.55 641.3-2.02 639.52-3.5 638.35-6.05 637.17-8.6 637.17-12.5ZM667.32 0L667.32-20.6Q667.32-22.3 667.02-24.7L667.02-24.7 670.77-25.2 671.32-22.05Q672.67-23.05 673.97-23.8 675.27-24.55 676.77-25.1 678.27-25.65 679.82-25.65L679.82-25.65Q682.32-25.65 683.77-24.78 685.22-23.9 685.92-21.8L685.92-21.8Q687.97-23.25 690.19-24.45 692.42-25.65 694.82-25.65L694.82-25.65Q696.67-25.65 697.97-25.18 699.27-24.7 700.07-23.6 700.87-22.5 701.22-20.7 701.57-18.9 701.57-16.2L701.57-16.2 701.57 0 697.57 0 697.57-15.75Q697.57-17.25 697.52-18.43 697.47-19.6 697.17-20.43 696.87-21.25 696.19-21.7 695.52-22.15 694.27-22.15L694.27-22.15Q693.12-22.15 692.09-21.83 691.07-21.5 689.97-20.9 688.87-20.3 686.57-18.45L686.57-18.45 686.57 0 682.57 0 682.57-15.75Q682.57-17.25 682.52-18.43 682.47-19.6 682.17-20.43 681.87-21.25 681.19-21.7 680.52-22.15 679.27-22.15L679.27-22.15Q677.97-22.15 676.57-21.6 675.17-21.05 673.92-20.3 672.67-19.55 671.32-18.55L671.32-18.55 671.32 0 667.32 0ZM708.67 11.4L708.67-19.35Q708.67-21.15 708.42-24.7L708.42-24.7 712.12-25.2 712.57-22.5Q713.57-23.35 714.64-24.03 715.72-24.7 716.99-25.18 718.27-25.65 719.72-25.65L719.72-25.65Q721.77-25.65 723.59-24.95 725.42-24.25 726.79-22.7 728.17-21.15 728.97-18.68 729.77-16.2 729.77-12.6L729.77-12.6Q729.77-8.95 728.69-6.43 727.62-3.9 725.89-2.33 724.17-0.75 721.99-0.05 719.82 0.65 717.57 0.65L717.57 0.65Q715.17 0.6 712.67 0.05L712.67 0.05 712.67 10.9 708.67 11.4ZM717.57-2.85L717.57-2.85Q719.67-2.85 721.17-3.6 722.67-4.35 723.64-5.68 724.62-7 725.07-8.72 725.52-10.45 725.52-12.4L725.52-12.4Q725.52-14.15 725.19-15.9 724.87-17.65 724.14-19.03 723.42-20.4 722.22-21.28 721.02-22.15 719.27-22.15L719.27-22.15Q717.97-22.15 716.82-21.68 715.67-21.2 714.64-20.53 713.62-19.85 712.67-19L712.67-19 712.67-3.65Q713.22-3.45 713.89-3.28 714.57-3.1 715.49-2.98 716.42-2.85 717.57-2.85ZM737.26-32.15L741.26-32.65 741.26-25.15 748.51-25.15 748.51-21.9 741.26-21.9 741.26-8.55Q741.26-6.9 741.34-5.8 741.41-4.7 741.66-4.05 741.91-3.4 742.36-3.13 742.81-2.85 743.51-2.85L743.51-2.85Q745.41-2.9 747.91-4.25L747.91-4.25 749.11-1.2Q747.46-0.1 746.04 0.28 744.61 0.65 743.21 0.65L743.21 0.65Q739.91 0.65 738.59-1.23 737.26-3.1 737.26-7.45L737.26-7.45 737.26-21.9 732.66-21.9 732.66-25.15 737.26-25.15 737.26-32.15ZM753.61 0L753.61-37.45 757.61-37.9 757.61 0 753.61 0ZM771.61-0.65L761.56-25.15 765.81-25.15 770.51-13.8Q771.21-12.15 771.78-10.5 772.36-8.85 772.81-7.55L772.81-7.55Q773.36-6 773.76-4.55L773.76-4.55 773.81-4.55Q774.26-6 774.81-7.55L774.81-7.55Q775.26-8.85 775.86-10.5 776.46-12.15 777.11-13.8L777.11-13.8 781.46-25.15 785.66-25.15 773.76 4.85Q773.06 6.7 771.93 8.05 770.81 9.4 769.76 10.3L769.76 10.3Q768.51 11.35 767.16 12.1L767.16 12.1 765.21 8.65Q766.26 8.15 767.16 7.4L767.16 7.4Q767.96 6.75 768.76 5.78 769.56 4.8 770.06 3.45L770.06 3.45 771.61-0.65ZM787.26-2.95L787.26-2.95Q787.26-4.15 788.11-5.03 788.96-5.9 790.21-5.9L790.21-5.9Q791.51-5.9 792.41-5.03 793.31-4.15 793.31-2.95L793.31-2.95Q793.31-1.7 792.41-0.85 791.51 0 790.21 0L790.21 0Q788.96 0 788.11-0.85 787.26-1.7 787.26-2.95Z" opacity="1" transform="matrix(1,0,0,1,0,0)" fill="#556970" class="slogan-text-1" data-fill-palette-color="secondary" id="text-1"></path></svg></g></svg></g></svg></g></svg></g><g><svg viewBox="0 0 106.39989741136063 106.93808579620806" height="106.93808579620806" width="106.39989741136063"><g><svg xmlns="http://www.w3.org/2000/svg" xmlns:xlink="http://www.w3.org/1999/xlink" version="1.1" x="0" y="0" viewBox="3.7035191987868017 1.559 93.98048080121319 94.45584971039588" enable-background="new 0 0 100 100" xml:space="preserve" height="106.93808579620806" width="106.39989741136063" class="icon-icon-0" data-fill-palette-color="accent" id="icon-0"><path d="M14.257 65.774C18.448 75.219 25.992 82.176 34.888 85.845L48.819 50.921zM20.294 69.357A3.835 3.835 0 0 1 27.343 66.328 3.835 3.835 0 0 1 25.333 71.367 3.834 3.834 0 0 1 20.294 69.357M34.255 79.309A3.833 3.833 0 0 1 29.217 77.299 3.834 3.834 0 0 1 31.227 72.262 3.834 3.834 0 0 1 36.265 74.271 3.834 3.834 0 0 1 34.255 79.309M37.428 67.26A3.835 3.835 0 1 1 34.4 60.211 3.835 3.835 0 0 1 37.428 67.26" fill="#aba944" data-fill-palette-color="accent"></path><path d="M11.821 35.463L6.817 33.467C2.675 44.157 2.508 56.389 7.269 67.775L12.202 65.655C8.033 55.646 8.187 44.882 11.821 35.463" fill="#aba944" data-fill-palette-color="accent"></path><path d="M33.217 12.967L31.097 8.033C19.807 13.018 11.51 22.007 7.157 32.612L12.162 34.608C16.007 25.274 23.305 17.359 33.217 12.967" fill="#aba944" data-fill-palette-color="accent"></path><path d="M64.254 12.223L66.251 7.218C55.561 3.077 43.328 2.91 31.943 7.67L34.063 12.604C44.071 8.435 54.835 8.588 64.254 12.223" fill="#aba944" data-fill-palette-color="accent"></path><path d="M35.744 86.188C44.724 89.648 54.985 89.793 64.526 85.825L49.673 51.263zM46.19 84.062A3.836 3.836 0 1 1 41.534 77.965 3.836 3.836 0 0 1 46.19 84.062M46.339 72.75A3.835 3.835 0 0 1 52.435 68.095 3.834 3.834 0 1 1 46.339 72.75M58.648 84.2A3.833 3.833 0 0 1 53.273 83.479 3.834 3.834 0 1 1 59.368 78.824 3.833 3.833 0 0 1 58.648 84.2" fill="#aba944" data-fill-palette-color="accent"></path><path d="M56.498 43.198L91.059 28.346C86.868 18.9 79.323 11.943 70.427 8.273zM70.74 33.651A3.835 3.835 0 1 1 72.971 28.709 3.833 3.833 0 0 1 70.74 33.651M85.238 25.142A3.836 3.836 0 1 1 78.06 27.852 3.836 3.836 0 0 1 85.238 25.142M74.444 21.755A3.834 3.834 0 0 1 69.501 19.524 3.834 3.834 0 1 1 76.676 16.812 3.834 3.834 0 0 1 74.444 21.755" fill="#aba944" data-fill-palette-color="accent"></path><path d="M92.75 27.619L97.684 25.499C92.7 14.208 83.711 5.912 73.105 1.559L71.109 6.563C80.443 10.409 88.358 17.707 92.75 27.619" fill="#aba944" data-fill-palette-color="accent"></path><path d="M85.785 63.975C89.246 54.995 89.39 44.734 85.423 35.193L50.861 50.044zM76.314 42.001A3.835 3.835 0 0 1 81.451 40.256 3.836 3.836 0 1 1 76.314 42.001M81.212 52.2A3.836 3.836 0 1 1 77.818 59.08 3.836 3.836 0 0 1 81.212 52.2M70.229 45.673A3.835 3.835 0 1 1 66.841 52.553 3.834 3.834 0 1 1 70.229 45.673" fill="#aba944" data-fill-palette-color="accent"></path><path d="M65.372 85.461C74.817 81.27 81.774 73.726 85.444 64.83L50.52 50.898zM74.408 63.249A3.836 3.836 0 1 1 77.144 70.418 3.836 3.836 0 0 1 74.408 63.249M62.501 59.579A3.833 3.833 0 0 1 67.451 61.798 3.834 3.834 0 1 1 60.285 64.53 3.835 3.835 0 0 1 62.501 59.579M66.103 71.834A3.837 3.837 0 0 1 68.839 79.003 3.837 3.837 0 0 1 66.103 71.834" fill="#aba944" data-fill-palette-color="accent"></path><path d="M35.062 87.896L33.066 92.901C43.755 97.043 55.988 97.211 67.374 92.449L65.254 87.515C55.245 91.684 44.48 91.53 35.062 87.896" fill="#aba944" data-fill-palette-color="accent"></path><path d="M33.944 14.659C24.498 18.85 17.542 26.394 13.872 35.29L48.796 49.22zM25.689 36.676A3.837 3.837 0 1 1 22.902 29.526 3.837 3.837 0 0 1 25.689 36.676M37.624 40.255A3.836 3.836 0 1 1 34.836 33.108 3.836 3.836 0 0 1 37.624 40.255M33.93 28.027A3.836 3.836 0 1 1 31.142 20.88 3.836 3.836 0 0 1 33.93 28.027" fill="#aba944" data-fill-palette-color="accent"></path><path d="M66.099 87.152L68.219 92.086C79.509 87.103 87.806 78.113 92.159 67.508L87.154 65.512C83.308 74.846 76.011 82.761 66.099 87.152" fill="#aba944" data-fill-palette-color="accent"></path><path d="M87.113 34.465C91.281 44.473 91.129 55.238 87.495 64.656L92.5 66.653C96.641 55.963 96.809 43.73 92.048 32.345z" fill="#aba944" data-fill-palette-color="accent"></path><path d="M13.53 36.145C10.07 45.125 9.925 55.386 13.893 64.928L48.455 50.076zM22.148 58.113A3.837 3.837 0 1 1 15.366 54.523 3.837 3.837 0 0 1 22.148 58.112M22.736 46.182A3.836 3.836 0 1 1 15.956 42.594 3.836 3.836 0 0 1 22.735 46.182M33.522 53.024A3.836 3.836 0 1 1 26.74 49.437 3.836 3.836 0 0 1 33.522 53.024" fill="#aba944" data-fill-palette-color="accent"></path><path d="M63.571 13.932C54.592 10.472 44.331 10.327 34.79 14.295L49.642 48.857zM51.848 18.379A3.836 3.836 0 1 1 58.792 21.639 3.837 3.837 0 1 1 51.848 18.379M52.475 32.741A3.835 3.835 0 1 1 45.531 29.482 3.835 3.835 0 0 1 52.475 32.741M45.005 16.522A3.836 3.836 0 1 1 41.743 23.467 3.836 3.836 0 0 1 45.005 16.522" fill="#aba944" data-fill-palette-color="accent"></path><path d="M12.565 66.501L7.631 68.621C12.615 79.91 21.605 88.208 32.21 92.561L34.206 87.554C24.873 83.71 16.957 76.413 12.565 66.501" fill="#aba944" data-fill-palette-color="accent"></path></svg></g></svg></g></svg></g></svg></g><defs></defs></svg><rect width="395.52" height="81.61298624091604" fill="none" stroke="none" visibility="hidden"></rect></g></svg></g></svg>